<svg
  xmlns="http://www.w3.org/2000/svg"
  xmlns:xlink="http://www.w3.org/1999/xlink"
  version="1.1"
  x="0px"
  y="0px"
  viewBox="0 0 467.333 329.16625000000005"
  enable-background="new 0 0 467.333 263.333"
  xml:space="preserve"
>
  <g>
    <path
      d="M151.346,19.753l-0.239-0.03c-13.7-1.42-25.82,1.19-37.051,7.99c-14.12,8.54-25.09,22.71-35.699,36.42   c-10.561,13.63-21.471,27.72-35.431,36.17c-11.029,6.68-22.95,9.24-36.42,7.85l-1.01-0.11l49.41,81.63l0.25,0.03   c13.7,1.42,25.819-1.2,37.04-7.99c14.12-8.54,25.1-22.71,35.7-36.42c10.56-13.63,21.479-27.72,35.43-36.17   c11.04-6.68,22.96-9.24,36.43-7.85l1,0.11L151.346,19.753z M160.506,36.804l9.11,15.06c-7.54-0.68-14.32-0.09-20.51,1.51   l-9.21-15.21C146.116,36.593,152.926,36.043,160.506,36.804z M158.856,69.483c-6.351,1.63-12.07,4.32-17.33,7.74l-9.221-15.24   c5.261-3.43,10.99-6.1,17.351-7.7L158.856,69.483z M114.576,28.574c4.979-3.02,10.14-5.2,15.56-6.55l9.21,15.23   c-6.33,1.64-12.06,4.32-17.319,7.74l-9.261-15.29C113.366,29.313,113.966,28.934,114.576,28.574z M122.556,45.863l9.221,15.25   c-5.271,3.43-10.101,7.6-14.63,12.21l-9.221-15.23C112.456,53.474,117.276,49.293,122.556,45.863z M126.906,89.443   c-4.57,4.64-8.83,9.72-12.971,14.93l-9.199-15.19c4.14-5.22,8.39-10.32,12.949-14.97L126.906,89.443z M98.176,41.983l9.221,15.23   c-4.561,4.64-8.83,9.73-12.971,14.93l-9.2-15.19C89.366,51.744,93.626,46.633,98.176,41.983z M88.896,80.854   c2.01-2.6,4.029-5.22,6.079-7.79l9.2,15.19c-2.13,2.68-4.229,5.39-6.319,8.1c-2.021,2.6-4.04,5.21-6.08,7.78l-9.2-15.19   C84.696,86.264,86.796,83.554,88.896,80.854z M101.536,120.253c-4.15,5.22-8.41,10.311-12.97,14.96l-9.221-15.22   c4.57-4.641,8.84-9.72,12.99-14.94L101.536,120.253z M72.826,72.824l9.2,15.2c-4.15,5.22-8.4,10.32-12.96,14.98l-9.21-15.22   C64.416,83.124,68.686,78.023,72.826,72.824z M69.596,103.883l9.221,15.22c-4.521,4.62-9.33,8.801-14.61,12.23l-9.22-15.24   C60.256,112.664,65.076,108.494,69.596,103.883z M73.956,147.444c-5.26,3.43-10.99,6.1-17.35,7.699l-9.2-15.21   c5.62-1.439,10.77-3.71,15.52-6.59c0.61-0.37,1.21-0.75,1.811-1.14L73.956,147.444z M43.446,101.164c0.6-0.37,1.21-0.75,1.81-1.15   l9.2,15.209c-5.271,3.431-10.99,6.101-17.35,7.7l-9.19-15.18C33.316,106.363,38.466,104.173,43.446,101.164z M26.236,140.393   l-9.101-15.05c7.54,0.69,14.32,0.09,20.511-1.52l9.21,15.21C40.636,140.603,33.816,141.154,26.236,140.393z M45.746,172.614   l-9.11-15.05c7.54,0.689,14.32,0.09,20.521-1.511l9.21,15.21C60.146,172.824,53.326,173.383,45.746,172.614z M91.686,180.864   c-4.979,3.01-10.149,5.189-15.55,6.54l-9.229-15.24c5.63-1.44,10.77-3.72,15.529-6.6c0.61-0.36,1.211-0.74,1.801-1.141l9.26,15.29   C92.896,180.114,92.286,180.494,91.686,180.864z M83.706,163.553l-9.22-15.239c5.27-3.431,10.09-7.601,14.609-12.221l9.23,15.24   C93.796,155.954,88.986,160.124,83.706,163.553z M110.676,164.723c-0.85,0.92-1.72,1.841-2.59,2.74l-9.229-15.25   c4.56-4.64,8.829-9.729,12.979-14.939l9.2,15.199C117.686,156.673,114.276,160.824,110.676,164.723z M117.356,128.574   c-2.011,2.6-4.03,5.22-6.07,7.79l-9.21-15.21c2.13-2.66,4.229-5.38,6.32-8.08c2.02-2.59,4.039-5.21,6.09-7.78l9.199,15.19   C121.556,123.164,119.456,125.874,117.356,128.574z M133.436,136.593l-9.199-15.189c4.14-5.221,8.39-10.32,12.949-14.97   l9.211,15.22C141.846,126.293,137.576,131.383,133.436,136.593z M136.656,105.554l-9.221-15.23c4.521-4.62,9.341-8.8,14.62-12.23   l9.221,15.24C146.006,96.753,141.176,100.934,136.656,105.554z M162.816,108.264c-0.61,0.37-1.21,0.75-1.811,1.14l-9.2-15.2   c5.271-3.43,10.99-6.1,17.351-7.71l9.189,15.19C172.946,103.054,167.786,105.253,162.816,108.264z M168.606,85.593l-9.2-15.21   c6.22-1.56,13.02-2.12,20.6-1.35l9.11,15.05C181.576,83.394,174.796,83.994,168.606,85.593z"
    />
  </g>
  <g>
    <path
      d="M231.686,133.454l-3.159,5.21l-76.771-126.83c-0.76-1.27-0.359-2.93,0.91-3.7c0.43-0.25,0.91-0.39,1.4-0.39   c0.949,0,1.81,0.49,2.31,1.3L231.686,133.454z"
    />
    <path
      d="M303.386,253.444c-0.17,0.699-0.6,1.29-1.22,1.659c-0.42,0.261-0.9,0.391-1.39,0.391c-0.95,0-1.82-0.49-2.311-1.3   l-65.359-107.98l3.149-5.21l66.82,110.4C303.456,252.013,303.566,252.744,303.386,253.444z"
    />
  </g>
  <g>
    <path
      d="M458.286,108.153c-13.47,1.39-25.4-1.17-36.43-7.85c-13.96-8.45-24.86-22.54-35.421-36.17   c-10.619-13.71-21.59-27.88-35.71-36.42c-11.229-6.8-23.35-9.41-37.04-7.99l-0.25,0.03l-49.409,81.63l1-0.11   c13.479-1.39,25.39,1.17,36.43,7.85c13.95,8.45,24.87,22.54,35.43,36.17c10.61,13.71,21.58,27.88,35.7,36.42   c11.22,6.79,23.34,9.41,37.05,7.99l0.25-0.03l49.4-81.63L458.286,108.153z M419.536,100.014c0.6,0.4,1.2,0.78,1.81,1.15   c4.98,3.01,10.12,5.2,15.521,6.58l-9.19,15.18c-6.359-1.6-12.08-4.27-17.35-7.7L419.536,100.014z M417.386,139.933l-9.21,15.21   c-6.359-1.6-12.08-4.27-17.35-7.699l9.229-15.24c0.591,0.39,1.19,0.77,1.801,1.14C406.606,136.223,411.756,138.494,417.386,139.933   z M409.806,116.093l-9.229,15.24c-5.271-3.43-10.09-7.61-14.61-12.23l9.22-15.22C399.716,108.494,404.526,112.664,409.806,116.093z    M391.956,72.824c4.14,5.2,8.41,10.3,12.97,14.96l-9.21,15.22c-4.56-4.66-8.81-9.76-12.96-14.98L391.956,72.824z M385.436,119.994   l-9.22,15.22c-4.56-4.649-8.819-9.74-12.96-14.96l9.19-15.2C376.596,110.273,380.866,115.353,385.436,119.994z M373.006,104.133   c-2.04-2.57-4.06-5.18-6.08-7.78c-2.09-2.71-4.189-5.42-6.319-8.1l9.199-15.19c2.051,2.57,4.07,5.19,6.08,7.79   c2.101,2.7,4.2,5.41,6.32,8.09L373.006,104.133z M366.606,41.983c4.55,4.65,8.81,9.76,12.949,14.97l-9.199,15.19   c-4.141-5.2-8.4-10.29-12.971-14.93L366.606,41.983z M360.046,89.184l-9.189,15.19c-4.15-5.21-8.41-10.29-12.971-14.93l9.21-15.23   C351.656,78.863,355.916,83.963,360.046,89.184z M356.856,58.093l-9.221,15.23c-4.529-4.61-9.35-8.78-14.63-12.21l9.23-15.25   C347.506,49.293,352.336,53.474,356.856,58.093z M334.656,22.023c5.41,1.35,10.569,3.53,15.56,6.55c0.601,0.36,1.21,0.74,1.8,1.13   l-9.26,15.29c-5.26-3.42-10.979-6.1-17.32-7.74L334.656,22.023z M332.476,61.983l-9.22,15.24c-5.26-3.42-10.979-6.11-17.33-7.74   l9.2-15.2C321.486,55.883,327.216,58.554,332.476,61.983z M304.276,36.804c7.59-0.76,14.39-0.21,20.609,1.36l-9.21,15.21   c-6.18-1.6-12.97-2.19-20.51-1.51L304.276,36.804z M275.666,84.083l9.11-15.05c7.58-0.77,14.39-0.21,20.6,1.35l-9.2,15.21   C289.986,83.994,283.206,83.394,275.666,84.083z M303.776,109.403c-0.591-0.39-1.19-0.77-1.801-1.14   c-4.979-3.01-10.14-5.21-15.54-6.58l9.19-15.19c6.36,1.61,12.09,4.28,17.35,7.71L303.776,109.403z M313.506,93.333l9.22-15.24   c5.28,3.43,10.101,7.61,14.62,12.23l-9.22,15.23C323.606,100.934,318.786,96.753,313.506,93.333z M331.346,136.593   c-4.14-5.21-8.41-10.3-12.96-14.939l9.21-15.22c4.561,4.65,8.82,9.75,12.95,14.97L331.346,136.593z M350.296,105.293   c2.061,2.57,4.07,5.19,6.09,7.78c2.101,2.7,4.19,5.42,6.32,8.08l-9.2,15.21c-2.05-2.57-4.07-5.19-6.08-7.79   c-2.09-2.7-4.189-5.41-6.33-8.09L350.296,105.293z M356.706,167.463c-0.87-0.899-1.75-1.82-2.6-2.74   c-3.591-3.899-7.011-8.05-10.36-12.25l9.2-15.199c4.149,5.21,8.42,10.3,12.979,14.939L356.706,167.463z M366.466,151.333   l9.22-15.24c4.521,4.62,9.341,8.79,14.62,12.221l-9.229,15.239C375.796,160.124,370.986,155.954,366.466,151.333z M388.646,187.404   c-5.4-1.351-10.561-3.53-15.54-6.54c-0.61-0.37-1.221-0.75-1.811-1.15l9.25-15.29c0.59,0.4,1.19,0.78,1.8,1.141   c4.761,2.88,9.9,5.159,15.53,6.6L388.646,187.404z M419.036,172.614c-7.58,0.77-14.4,0.21-20.62-1.351l9.21-15.21   c6.2,1.601,12.98,2.2,20.521,1.511L419.036,172.614z M438.546,140.393c-7.58,0.761-14.399,0.21-20.62-1.359l9.21-15.21   c6.19,1.609,12.971,2.21,20.511,1.52L438.546,140.393z"
    />
  </g>
  <g>
    <path
      d="M313.026,11.833l-76.771,126.83l-0.359,0.59l-0.351,0.58l-3.149,5.21l-0.36,0.58l-0.351,0.59l-65.369,107.98   c-0.49,0.81-1.36,1.3-2.311,1.3c-0.49,0-0.97-0.13-1.39-0.391c-0.62-0.369-1.05-0.96-1.22-1.659c-0.171-0.7-0.061-1.431,0.31-2.04   l66.83-110.4l0.35-0.58l0.36-0.59l3.15-5.2l0.35-0.59l0.36-0.58l75.31-124.42c0.49-0.81,1.35-1.3,2.31-1.3   c0.48,0,0.971,0.14,1.391,0.39C313.386,8.903,313.796,10.563,313.026,11.833z"
    />
  </g>
</svg>
