<svg
  xmlns="http://www.w3.org/2000/svg"
  xmlns:xlink="http://www.w3.org/1999/xlink"
  version="1.1"
  x="0px"
  y="0px"
  viewBox="0 0 128 160"
  style="enable-background: new 0 0 128 128"
  xml:space="preserve"
>
  <g>
    <path
      d="M25.3,70.5c3.2-8.4,9.8-15.4,18-19.2c1.5-0.7,2.2-2.5,1.5-4c-0.7-1.5-2.5-2.2-4-1.5c-9.6,4.4-17.3,12.7-21.1,22.5   c-0.6,1.5,0.2,3.3,1.7,3.9c0.4,0.1,0.7,0.2,1.1,0.2C23.7,72.4,24.8,71.6,25.3,70.5z"
    />
    <path
      d="M54.5,30.1C27.8,31.8,6.6,53.3,5.1,79.9c-1,17,6,32.9,19,43.8c1.8,1.4,4.1,2.2,6.4,2.2h73.5c9.7,0,17.9-7.3,19-16.9   c0.2-1.6-1-3.1-2.6-3.3c-1.6-0.2-3.1,1-3.3,2.6c-0.8,6.6-6.4,11.6-13.1,11.6H30.6c-1,0-1.9-0.3-2.6-0.9   c-11.6-9.6-17.7-23.8-16.8-38.8c1.3-23.6,20.2-42.6,43.8-44.2C73.1,34.9,90,44.1,99,60c0.8,1.4,2.6,2,4.1,1.1   c1.4-0.8,2-2.6,1.1-4.1C94.1,39.1,75.1,28.8,54.5,30.1z"
    />
    <path
      d="M55.6,81.3l9.4,15c1.8,2.9,5,4.7,8.5,4.7c0,0,32,0.1,44.2,0c2.1,0,3.6-2.1,2.8-4.1l-11.4-28.4c-0.6-1.5-2.1-2.5-3.7-2.5   H64.1C56.2,66,51.4,74.7,55.6,81.3z M67.5,75.5c0,2.2-1.8,4-4,4s-4-1.8-4-4c0-2.2,1.8-4,4-4S67.5,73.3,67.5,75.5z"
    />
    <circle cx="20.1" cy="81" r="3" />
  </g>
</svg>
