<svg xmlns:dc="http://purl.org/dc/elements/1.1/" xmlns:cc="http://creativecommons.org/ns#" xmlns:rdf="http://www.w3.org/1999/02/22-rdf-syntax-ns#" xmlns:svg="http://www.w3.org/2000/svg" xmlns="http://www.w3.org/2000/svg" xmlns:sodipodi="http://sodipodi.sourceforge.net/DTD/sodipodi-0.dtd" xmlns:inkscape="http://www.inkscape.org/namespaces/inkscape" viewBox="0 0 100 125" version="1.1" x="0px" y="0px"><g transform="translate(0,-952.36216)"><path d="m 49.999747,957.36222 c -17.676817,4e-5 -32.006228,14.32999 -32.006375,32.00674 0,17.67674 32.980858,57.99324 32.980858,57.99324 0,0 31.032333,-40.3165 31.032333,-57.99324 0,-17.67675 -14.330146,-32.0067 -32.006816,-32.00674 z m 0,6.49684 a 25.509998,25.509998 0 0 1 25.509871,25.5099 25.509998,25.509998 0 0 1 -25.509871,25.50994 25.509998,25.509998 0 0 1 -25.509872,-25.50994 25.509998,25.509998 0 0 1 25.509872,-25.5099 z" style="opacity:1;fill:#000000;fill-opacity:1;stroke:none;stroke-width:2;stroke-linecap:butt;stroke-linejoin:miter;stroke-miterlimit:4;stroke-dasharray:none;stroke-dashoffset:0;stroke-opacity:1"/><path d="m 31.915585,980.76217 0,0.38469 0.384413,0 0,-0.38469 -0.384413,0 z m 0.384413,0.38469 0,0.38465 0.385588,0 0,-0.38465 -0.385588,0 z m 0.385588,0 0.38456,0 0,-0.38469 -0.38456,0 0,0.38469 z m 0.38456,0 0,0.38465 0.385295,0 0,-0.38465 -0.385295,0 z m 0.385295,0 0.384119,0 0,-0.38469 -0.384119,0 0,0.38469 z m 0.384119,0 0,0.38465 0.385001,0 0,-0.38465 -0.385001,0 z m 0.385001,0 0.384413,0 0,0.38465 -0.384413,0 0,0.38469 0.384413,0 0,0.38465 -0.384413,0 0,0.38468 0.384413,0 0,0.38464 -0.384413,0 0,0.38553 0.384413,0 0,0.38468 4.259706,0 17.697691,0 c 1.279367,0 2.169764,0.90098 2.169764,1.99395 0,1.093 -0.890691,1.99385 -2.169764,1.99385 l -11.208391,0 0,0.004 -3.042521,0 c -2.848183,0 -5.250359,2.24499 -5.250359,5.07137 0,2.82635 2.401882,5.07212 5.250359,5.07212 l 18.341858,0 0.564345,0 7.243279,0 0,-3.07744 -7.224169,0 -0.583455,0 -18.341858,0 c -1.278779,0 -2.171822,-0.90171 -2.171822,-1.99468 0,-1.09297 0.892749,-1.99311 2.171822,-1.99311 l 11.207362,0 0,-0.004 3.043109,0 c 2.848036,0 5.24786,-2.2457 5.24786,-5.07209 0,-2.82635 -2.400118,-5.07214 -5.24786,-5.07214 l -17.696956,0 -4.640885,0 0,0.38467 z m 0,2.30884 -0.385001,0 0,0.38468 0.385001,0 0,-0.38468 z m -0.385001,0 0,-0.38553 -0.384119,0 0,0.38553 0.384119,0 z m -0.384119,0 -0.385295,0 0,0.38468 0.385295,0 0,-0.38468 z m -0.385295,0 0,-0.38553 -0.38456,0 0,0.38553 0.38456,0 z m -0.38456,0 -0.385588,0 0,0.38468 0.385588,0 0,-0.38468 z m -0.385588,0 0,-0.38553 -0.384413,0 0,0.38553 0.384413,0 z m -0.384413,0 -0.381032,0 0,0.38468 0.381032,0 0,-0.38468 z m 0,-0.38553 0,-0.38464 -0.381032,0 0,0.38464 0.381032,0 z m 0,-0.38464 0.384413,0 0,-0.38468 -0.384413,0 0,0.38468 z m 0,-0.38468 0,-0.38465 -0.381032,0 0,0.38465 0.381032,0 z m 0,-0.38465 0.384413,0 0,-0.38469 -0.384413,0 0,0.38469 z m 0,-0.38469 0,-0.38465 -0.381032,0 0,0.38465 0.381032,0 z m 0.384413,0.38469 0,0.38465 0.385588,0 0,-0.38465 -0.385588,0 z m 0.385588,0 0.38456,0 0,-0.38469 -0.38456,0 0,0.38469 z m 0.38456,0 0,0.38465 0.385295,0 0,-0.38465 -0.385295,0 z m 0.385295,0 0.384119,0 0,-0.38469 -0.384119,0 0,0.38469 z m 0.384119,0 0,0.38465 0.385001,0 0,-0.38465 -0.385001,0 z m 0,0.38465 -0.384119,0 0,0.38468 0.384119,0 0,-0.38468 z m 0,0.38468 0,0.38464 0.385001,0 0,-0.38464 -0.385001,0 z m -0.384119,0 -0.385295,0 0,0.38464 0.385295,0 0,-0.38464 z m -0.385295,0 0,-0.38468 -0.38456,0 0,0.38468 0.38456,0 z m -0.38456,0 -0.385588,0 0,0.38464 0.385588,0 0,-0.38464 z m 3.972463,-1.53867 1.155149,0 0,0.38465 -1.155149,0 0,-0.38465 z m 2.308976,0 1.154267,0 0,0.38465 -1.154267,0 0,-0.38465 z m 2.308535,0 1.154708,0 0,0.38465 -1.154708,0 0,-0.38465 z m 2.308682,0 1.154561,0 0,0.38465 -1.154561,0 0,-0.38465 z m 2.308388,0 1.154856,0 0,0.38465 -1.154856,0 0,-0.38465 z m 2.308976,0 1.154268,0 0,0.38465 -1.154268,0 0,-0.38465 z m 2.307653,0 1.15515,0 0,0.38465 -1.15515,0 0,-0.38465 z m 2.309564,0 1.15368,0 0,0.38465 -1.15368,0 0,-0.38465 z m 2.308535,0 1.154121,0 0,0.38465 -1.154121,0 0,-0.38465 z m -20.172192,0.004 0.865553,0 0,0.38466 -0.865553,0 0,-0.38466 z m 22.504836,0.0785 0.06571,0.009 0.0088,0.004 0.0088,0.004 0.444831,0.10984 0.0088,0.004 0.0088,0.004 0.425868,0.15068 0.0088,0.004 0.0088,0.005 0.159646,0.0745 -0.16141,0.34944 -0.151413,-0.0705 -0.411461,-0.14423 -0.423075,-0.10502 -0.05865,-0.009 0.05527,-0.38149 0.0088,-0.007 0,0 z m 2.177409,0.97449 0.0088,0.004 0.0088,0.007 0.333697,0.28933 0.0088,0.007 0.0088,0.007 0.302826,0.31815 0.0088,0.007 0.0088,0.008 0.164496,0.20833 -0.30312,0.23801 -0.156411,-0.20117 -0.292095,-0.30689 -0.318409,-0.27567 -0.0088,-0.007 0.07424,-0.085 0.15553,-0.21802 z m -3.921306,0.86393 0.01176,0 0.831596,0 0.288567,0.0137 0.0088,0 0.0088,0 0.03278,0.005 -0.05454,0.38068 -0.02881,-0.004 -0.278865,-0.0119 -0.821894,0 0,-0.3847 z m -20.759175,0 1.153826,0 0,0.38469 -1.153826,0 0,-0.38469 z m 2.308388,0 1.15368,0 0,0.38469 -1.15368,0 0,-0.38469 z m 2.308682,0 1.15368,0 0,0.38469 -1.15368,0 0,-0.38469 z m 2.308094,0 1.153827,0 0,0.38469 -1.153827,0 0,-0.38469 z m 2.308829,0 1.154415,0 0,0.38469 -1.154415,0 0,-0.38469 z m 2.308241,0 1.153827,0 0,0.38469 -1.153827,0 0,-0.38469 z m 2.309418,0 1.153826,0 0,0.38469 -1.153826,0 0,-0.38469 z m 2.307653,0 1.154267,0 0,0.38469 -1.154267,0 0,-0.38469 z m 2.309417,0 1.153532,0 0,0.38469 -1.153532,0 0,-0.38469 z m 4.65191,0.38628 0.139212,0.0794 0.0088,0.005 0.0088,0.006 0.210067,0.14749 0.0088,0.007 0.0088,0.007 0.193308,0.16665 0.0088,0.007 0.0088,0.007 0.174786,0.18273 0,0.007 0.0088,0.007 0.139505,0.17787 -0.301944,0.23809 -0.136272,-0.17313 -0.159498,-0.16668 -0.179049,-0.15387 -0.196396,-0.14026 -0.132303,-0.0745 0.190369,-0.33339 0,0 z m 2.99254,0.64518 0.01176,0 0.122453,0.31977 0,0.009 0,0.009 0.117309,0.43193 0,0.009 0,0.01 0.05674,0.35984 -0.379709,0.0609 -0.05615,-0.351 -0.11084,-0.41111 -0.120249,-0.31101 0.357365,-0.13617 z m -1.603509,1.30149 0,0 0.02455,0.1378 0,0.009 0,0.0101 0.01705,0.26125 0,0.0102 0,0.009 -0.01705,0.26203 0,0.009 0,0.01 -0.04087,0.25482 0,0.0101 0,0.009 -0.06086,0.22522 -0.372652,-0.0994 0.05718,-0.21243 0.0369,-0.23562 0.01176,-0.24358 -0.01176,-0.24364 -0.02058,-0.12578 0.374711,-0.0593 z m 1.545296,1.00012 0.368389,0.0601 -0.04866,0.31172 0,0.01 0,0.01 -0.116132,0.43197 0,0.009 0,0.009 -0.14127,0.36462 -0.358981,-0.13778 0.137006,-0.35671 0.110841,-0.40874 0.0488,-0.30291 z m -2.546533,1.02185 0.0088,0 0.277394,0.26601 -0.08732,0.0914 -0.0088,0.007 -0.0088,0.007 -0.193162,0.16587 -0.0088,0.007 -0.0088,0.006 -0.208744,0.14748 -0.0088,0.006 -0.0088,0.005 -0.225796,0.12899 -0.0088,0.005 -0.0088,0.004 -0.23197,0.10419 -0.157441,-0.35023 0.224768,-0.10177 0.212566,-0.12182 0,-0.004 0.188311,-0.13381 0.177286,-0.15305 0.08203,-0.0849 z m -12.318264,0.78695 1.15515,0 0,0.3855 -1.15515,0 0,-0.3855 z m 2.309417,0 1.154121,0 0,0.3855 -1.154121,0 0,-0.3855 z m 2.3078,0 1.155444,0 0,0.3855 -1.155444,0 0,-0.3855 z m 2.309271,0 1.153973,0 0,0.3855 -1.153973,0 0,-0.3855 z m 2.307653,0 1.15559,0 0,0.3855 -1.15559,0 0,-0.3855 z m -13.080033,0.005 0.0029,0 0.373387,0 0,0.38471 -0.365596,0 -0.458355,0.0217 -0.298416,0.0433 -0.05542,-0.3799 0.303268,-0.0457 0.01176,0 0.0088,0 0.470998,-0.0234 0.0029,0 z m 1.53868,0 1.154562,0 0,0.38471 -1.154562,0 0,-0.38471 z m 16.303221,0.19481 0.302973,0.23794 -0.133773,0.17075 -0.0088,0.007 -0.0088,0.007 -0.30312,0.31904 -0.0088,0.007 -0.0088,0.006 -0.33399,0.28933 -0.0088,0.007 -0.0088,0.006 -0.04631,0.032 -0.223738,-0.31254 0.03704,-0.0271 0.320026,-0.27648 0.293418,-0.30698 0.125541,-0.16265 0.0088,0 0,-0.004 z m -19.796894,0.2091 0.161262,0.34944 -0.324583,0.15071 -0.367213,0.21314 -0.273279,0.19556 -0.223297,-0.31337 0.28107,-0.20116 0.0088,-0.005 0.0088,-0.005 0.385589,-0.22359 0.0088,-0.005 0.0088,-0.004 0.328258,-0.1523 z m 18.062111,1.1372 0.158029,0.34222 -0.115398,0.0537 -0.0088,0.004 -0.0088,0.004 -0.427632,0.15068 -0.0088,0.004 -0.0088,0.004 -0.444831,0.11053 -0.0088,0.004 -0.0088,0 -0.112898,0.0176 -0.05542,-0.38146 0.106724,-0.0151 0.423957,-0.10494 0.417194,-0.14671 0.09688,-0.0449 0,0 z m -19.955069,0.29655 0.0044,0 0.301797,0.2372 -0.159939,0.20515 0,0.004 -0.218152,0.34461 -0.190516,0.37665 0,0.004 0,0.009 -0.08129,-0.0416 -0.274895,-0.10496 0.0029,-0.01 0,-0.009 0,-0.009 0.199042,-0.3935 0,-0.008 0,-0.009 0.236234,-0.37024 0.0029,-0.008 0.0088,-0.007 0.162585,-0.20845 0,-0.004 z m 15.468538,0.0833 0,0 0,0.38464 -0.56508,0.004 -0.588012,0 0,-0.38465 0.587571,0 0.56508,-0.004 z m 1.157501,0 1.154268,0 0,0.38464 -1.154268,0 0,-0.38464 z m -12.784409,0 0.0029,0.004 0.0029,0 0.06968,0 0,0.38465 -0.06204,0 -0.277689,0.0119 -0.258578,0.0369 -0.244613,0.0577 -0.221093,0.0746 -0.123482,-0.36384 0.225356,-0.0769 0.0088,-0.004 0.0088,-0.004 0.268427,-0.0633 0.0088,-0.004 0.0088,0 0.277688,-0.0394 0.0088,0 0.0088,0 0.286509,-0.0135 z m 1.241293,0.004 1.15412,0 0,0.38465 -1.15412,0 0,-0.38465 z m 2.309417,0 1.153386,0 0,0.38465 -1.153386,0 0,-0.38465 z m 2.307947,0 1.153974,0 0,0.38465 -1.153974,0 0,-0.38465 z m 2.308682,0 1.153974,0 0,0.38465 -1.153974,0 0,-0.38465 z m -10.331371,0.87517 0.01691,0 0.279158,0.26602 -0.103343,0.1066 -0.152295,0.19315 0,0.004 -0.117749,0.18432 -0.104225,0.20836 -0.08041,0.21159 -0.360598,-0.13783 0.08276,-0.21638 0,-0.009 0,-0.009 0.11334,-0.2244 0,-0.009 0,-0.009 0.134507,-0.21161 0,-0.007 0.0029,-0.009 0.155529,-0.19873 0,-0.007 0.0088,-0.007 0.11525,-0.12019 z m -2.627384,1.2173 0.37868,0.0609 -0.02867,0.16673 -0.0247,0.44317 0.0247,0.44314 0.0088,0.0369 -0.37868,0.0609 -0.0088,-0.0481 0,-0.01 0,-0.009 -0.02881,-0.46237 0,-0.01 0,-0.0101 0.02881,-0.46241 0,-0.009 0,-0.01 0.0244,-0.17795 0.0029,-0.004 z m 2.278105,1.00256 0.0247,0.14827 0.05851,0.22362 0.08423,0.21952 0.10496,0.2076 0.118631,0.18747 -0.3237,0.20682 -0.127746,-0.19878 0,-0.008 0,-0.008 -0.112016,-0.22515 0,-0.009 -0.0029,-0.009 -0.08982,-0.23644 -0.0029,-0.008 0,-0.009 -0.06571,-0.24526 0,-0.01 0,-0.0101 -0.02867,-0.15867 0.364714,-0.0577 z m -1.640847,1.22539 0.04763,0.12335 0.190663,0.37664 0.21874,0.34467 0,0.004 0.07835,0.10102 -0.302679,0.2372 -0.081,-0.10335 -0.0088,-0.008 -0.0029,-0.007 -0.234617,-0.37027 -0.0029,-0.009 0,-0.008 -0.197866,-0.39425 -0.0029,-0.008 0,-0.0101 -0.05219,-0.13311 0.35413,-0.13538 z m 2.815254,0.46872 0.0029,0 0.106284,0.061 0.22609,0.10177 0.235499,0.0801 0.25652,0.0609 0.190369,0.0263 -0.05366,0.38151 -0.203158,-0.0279 -0.0088,0 -0.0088,-0.005 -0.267545,-0.0633 -0.0088,0 -0.0088,-0.004 -0.255051,-0.0874 -0.0088,-0.004 -0.0088,-0.004 -0.241379,-0.10825 -0.0088,-0.005 -0.0088,-0.004 -0.120984,-0.0697 0.188311,-0.33104 z m 2.144774,0.35351 1.154268,0 0,0.38468 -1.154268,0 0,-0.38468 z m 2.308535,0 1.154709,0 0,0.38468 -1.154709,0 0,-0.38468 z m 2.308682,0 1.154562,0 0,0.38468 -1.154562,0 0,-0.38468 z m 2.308094,0 1.15515,0 0,0.38468 -1.15515,0 0,-0.38468 z m 2.309418,0 1.15412,0 0,0.38468 -1.15412,0 0,-0.38468 z m 2.307506,0 1.155737,0 0,0.38468 -1.155737,0 0,-0.38468 z m 2.309417,0 1.154414,0 0,0.38468 -1.154414,0 0,-0.38468 z m 2.308094,0 1.155149,0 0,0.38468 -1.155149,0 0,-0.38468 z m 2.308976,0 1.153973,0 0,0.38468 -1.153973,0 0,-0.38468 z m 2.308241,0 1.155003,0 0,0.38468 -1.155003,0 0,-0.38468 z m 2.308976,0 1.154268,0 0,0.38468 -1.154268,0 0,-0.38468 z m -26.742051,0.92399 0.0088,0 0.02058,0.0176 0.343546,0.24691 0.3728,0.21628 0.197866,0.0914 -0.160822,0.34862 -0.209332,-0.0962 -0.0088,-0.004 -0.0088,-0.004 -0.385736,-0.22523 -0.0088,-0.004 -0.0088,-0.006 -0.360599,-0.25798 -0.0088,-0.005 -0.0088,-0.007 -0.02867,-0.0234 0.251522,-0.29097 z m 1.995566,0.91521 0.42087,0.0625 0.458355,0.0226 0.233147,0 0,0.38464 -0.240938,0 -0.472174,-0.0242 -0.0088,0 -0.01176,0 -0.434541,-0.0633 0.0563,-0.38068 0,0 z m 2.266786,0.0842 1.154121,0 0,0.38465 -1.154121,0 0,-0.38465 z m 2.308683,0 1.153973,0 0,0.38465 -1.153973,0 0,-0.38465 z m 2.308682,0 1.153973,0 0,0.38465 -1.153973,0 0,-0.38465 z m 2.308535,0 1.153826,0 0,0.38465 -1.153826,0 0,-0.38465 z m 2.308535,0 1.153826,0 0,0.38465 -1.153826,0 0,-0.38465 z m 2.308535,0 1.154268,0 0,0.38465 -1.154268,0 0,-0.38465 z m 2.308535,0 1.153533,0 0,0.38465 -1.153533,0 0,-0.38465 z m 2.308976,0 0.786319,0 0.367655,0 0,0.38465 -0.367655,0 -0.786319,0 0,-0.38465 z m 2.308094,0 1.153974,0 0,0.38465 -1.153974,0 0,-0.38465 z m 2.308976,0 1.153974,0 0,0.38465 -1.153974,0 0,-0.38465 z m 2.308242,0 1.153679,0 0,0.38465 -1.153679,0 0,-0.38465 z" style="color:#000000;font-style:normal;font-variant:normal;font-weight:normal;font-stretch:normal;font-size:medium;line-height:normal;font-family:sans-serif;text-indent:0;text-align:start;text-decoration:none;text-decoration-line:none;text-decoration-style:solid;text-decoration-color:#000000;letter-spacing:normal;word-spacing:normal;text-transform:none;direction:ltr;block-progression:tb;writing-mode:lr-tb;baseline-shift:baseline;text-anchor:start;white-space:normal;clip-rule:nonzero;display:inline;overflow:visible;visibility:visible;opacity:1;isolation:auto;mix-blend-mode:normal;color-interpolation:sRGB;color-interpolation-filters:linearRGB;solid-color:#000000;solid-opacity:1;fill:#000000;fill-opacity:1;fill-rule:nonzero;stroke:none;stroke-width:3;stroke-linecap:butt;stroke-linejoin:miter;stroke-miterlimit:4;stroke-dasharray:none;stroke-dashoffset:0;stroke-opacity:1;color-rendering:auto;image-rendering:auto;shape-rendering:auto;text-rendering:auto;enable-background:accumulate"/></g></svg>